<svg width="80" height="80" viewBox="0 0 80 80" fill="none" xmlns="http://www.w3.org/2000/svg">
<path d="M79.8529 18.9709C79.5776 17.947 78.9058 17.0741 77.9867 16.5449C77.0669 16.0131 75.9734 15.8692 74.9475 16.1446C73.9229 16.4206 73.05 17.0917 72.5208 18.0108L71.8543 19.1708C71.2209 18.8069 70.4118 19.021 70.0414 19.6511L66.6553 25.4229L65.4953 24.7564C65.1881 24.5787 64.8223 24.5305 64.4799 24.623C64.1368 24.716 63.8452 24.9413 63.6688 25.2498C63.3076 25.8871 63.5276 26.6968 64.1622 27.0626L65.3222 27.7292L53.9908 47.3658L51.1911 54.845L49.858 57.3374C49.0776 58.6953 49.1609 60.3831 50.0715 61.657L47.072 65.3361L46.2323 63.2303C45.8535 62.2917 44.9767 61.6485 43.9684 61.5698C42.9595 61.4904 41.9928 61.989 41.4727 62.8567L40.993 63.6697L40.5399 58.3373C40.4358 57.0758 39.4588 56.0616 38.2025 55.9093C36.9455 55.7576 35.7556 56.5107 35.354 57.7111L32.0746 67.5492C31.8455 68.2451 32.2204 68.9949 32.9143 69.2293C33.0445 69.2898 33.1844 69.3263 33.3276 69.3354C33.9005 69.3373 34.4108 68.9722 34.5943 68.4293L37.8601 58.5911L38.3268 64.003C38.4231 65.1577 39.2531 66.1178 40.3818 66.3795C41.5105 66.6412 42.6783 66.1439 43.2726 65.1499L43.766 64.3362L44.5926 66.4296C44.9435 67.3116 45.737 67.9411 46.6763 68.081C47.6156 68.221 48.5581 67.8506 49.1518 67.1092L52.258 63.1769C52.6017 63.2668 52.9558 63.3117 53.3112 63.3104C54.74 63.3214 56.0666 62.569 56.7904 61.3367L58.1235 59.1106L63.2027 52.9384L74.6539 33.0616L75.8139 33.7282C76.1231 33.9052 76.3483 34.1975 76.4401 34.5418C76.5325 34.8836 76.4843 35.2481 76.3073 35.5547L70.9749 44.7933C70.7737 45.0967 70.7054 45.469 70.7861 45.8244C70.8668 46.1792 71.0888 46.4858 71.4012 46.6726C71.7085 46.8509 72.0743 46.8991 72.4167 46.8067C72.7597 46.7136 73.0513 46.4884 73.2277 46.1798L78.5602 36.9412C79.092 36.0214 79.2358 34.9278 78.9598 33.902C78.6838 32.8774 78.0127 32.0045 77.0936 31.4753L75.9336 30.8087L79.2664 25.0363C79.6303 24.4029 79.4161 23.5945 78.7867 23.2235L79.4532 22.0635C79.9994 21.1294 80.1439 20.0137 79.8529 18.9709ZM74.8271 19.3439C75.0035 19.0354 75.2964 18.8095 75.6407 18.7177C75.9831 18.6331 76.345 18.6806 76.6536 18.8512C76.9628 19.0276 77.188 19.3205 77.2804 19.6642C77.365 20.0066 77.3175 20.3685 77.147 20.677L76.4804 21.837L74.1605 20.5039L74.8271 19.3439ZM56.657 56.5648L55.9904 56.1781L54.0175 55.0312L55.9104 49.9656L60.1095 52.3917L56.657 56.5648ZM52.6577 60.417C52.0946 60.0245 51.9215 59.2694 52.258 58.6705L52.9246 57.5112L55.2438 58.8443L54.5773 59.9906C54.3905 60.3148 54.0767 60.5452 53.7115 60.6266C53.3464 60.7073 52.9643 60.6318 52.6577 60.417ZM61.6294 50.2058L57.017 47.5396L67.6818 29.0623L72.2943 31.7285L61.6294 50.2058ZM73.6274 29.4223L69.0149 26.7561L71.6811 22.1436L76.2936 24.8098L73.6274 29.4223Z" fill="white"/>
<path d="M21.0361 59.7502L16.3175 64.4564L13.4912 61.6301C12.9711 61.1133 12.1314 61.1133 11.6113 61.6301C11.3588 61.8807 11.2169 62.2211 11.2169 62.5766C11.2169 62.932 11.3588 63.273 11.6113 63.523L14.4377 66.3493C14.9376 66.8453 15.6132 67.1233 16.3175 67.1226C17.0258 67.1265 17.7073 66.8486 18.2105 66.3493L22.916 61.6301C23.3691 61.1009 23.3385 60.3126 22.8464 59.8205C22.3536 59.3278 21.5653 59.2972 21.0361 59.7502Z" fill="white"/>
<path d="M5.33252 63.3359C5.33252 69.5946 10.4059 74.6673 16.6639 74.6673C22.922 74.6673 27.9953 69.5946 27.9953 63.3359C27.9953 62.5997 27.3984 62.0028 26.6622 62.0028C25.926 62.0028 25.3291 62.5997 25.3291 63.3359C25.3291 68.1215 21.4496 72.0011 16.6639 72.0011C11.8783 72.0011 7.99873 68.1215 7.99873 63.3359C7.99873 58.5503 11.8783 54.6707 16.6639 54.6707C18.5399 54.6655 20.3658 55.2741 21.8629 56.4042C22.452 56.8461 23.2878 56.7264 23.7291 56.1373C24.1711 55.5482 24.052 54.713 23.4629 54.2711C20.0292 51.696 15.435 51.282 11.5964 53.2009C7.75724 55.1205 5.33252 59.0443 5.33252 63.3359Z" fill="white"/>
<path d="M47.9917 10.6779C48.728 10.6779 49.3249 10.0817 49.3249 9.34483C49.3249 8.60862 48.728 8.01172 47.9917 8.01172H13.331C12.5948 8.01172 11.9979 8.60862 11.9979 9.34483V14.6773C11.9979 15.4141 12.5948 16.0104 13.331 16.0104H47.9917C48.728 16.0104 49.3249 15.4141 49.3249 14.6773C49.3249 13.941 48.728 13.3441 47.9917 13.3441H14.6641V10.6779H47.9917Z" fill="white"/>
<path d="M17.3304 18.6768C16.5942 18.6768 15.9973 19.2737 15.9973 20.0099C15.9973 20.7467 16.5942 21.343 17.3304 21.343H43.9926C44.7288 21.343 45.3257 20.7467 45.3257 20.0099C45.3257 19.2737 44.7288 18.6768 43.9926 18.6768H17.3304Z" fill="white"/>
<path d="M51.9912 28.0078H22.6629C21.9267 28.0078 21.3298 28.6047 21.3298 29.3409C21.3298 30.0778 21.9267 30.674 22.6629 30.674H51.9912C52.7274 30.674 53.3243 30.0778 53.3243 29.3409C53.3243 28.6047 52.7274 28.0078 51.9912 28.0078Z" fill="white"/>
<path d="M38.6601 37.3409C38.6601 36.6047 38.0632 36.0078 37.327 36.0078H10.6648C9.92863 36.0078 9.33173 36.6047 9.33173 37.3409C9.33173 38.0778 9.92863 38.674 10.6648 38.674H37.327C38.0632 38.674 38.6601 38.0778 38.6601 37.3409Z" fill="white"/>
<path d="M51.9911 36.0078H42.6594C41.9232 36.0078 41.3263 36.6047 41.3263 37.3409C41.3263 38.0778 41.9232 38.674 42.6594 38.674H51.9911C52.7273 38.674 53.3242 38.0778 53.3242 37.3409C53.3242 36.6047 52.7273 36.0078 51.9911 36.0078Z" fill="white"/>
<path d="M23.9959 45.339C24.7321 45.339 25.329 44.7428 25.329 44.0059C25.329 43.2698 24.7321 42.6729 23.9959 42.6729H10.6648C9.92863 42.6729 9.33173 43.2698 9.33173 44.0059C9.33173 44.7428 9.92863 45.339 10.6648 45.339H23.9959Z" fill="white"/>
<path d="M29.3283 45.339H38.66C39.3962 45.339 39.9931 44.7428 39.9931 44.0059C39.9931 43.2698 39.3962 42.6729 38.66 42.6729H29.3283C28.5921 42.6729 27.9952 43.2698 27.9952 44.0059C27.9952 44.7428 28.5921 45.339 29.3283 45.339Z" fill="white"/>
<path d="M59.9898 61.3365C59.2536 61.3365 58.6567 61.9334 58.6567 62.6697V76.0007C58.6567 76.7376 58.0598 77.3338 57.3236 77.3338H3.99932C3.26312 77.3338 2.66621 76.7376 2.66621 76.0007V4.01299C2.66621 3.27679 3.26312 2.67988 3.99932 2.67988H57.3236C58.0598 2.67988 58.6567 3.27679 58.6567 4.01299V29.0491C58.6567 29.7853 59.2536 30.3822 59.9898 30.3822C60.726 30.3822 61.3229 29.7853 61.3229 29.0491V4.01299C61.3229 1.80438 59.5322 0.0136719 57.3236 0.0136719H3.99932C1.79071 0.0136719 0 1.80438 0 4.01299V76.0007C0 78.21 1.79071 80 3.99932 80H57.3236C59.5322 80 61.3229 78.21 61.3229 76.0007V62.6697C61.3229 61.9334 60.726 61.3365 59.9898 61.3365Z" fill="white"/>
</svg>
