<svg width="80" height="80" viewBox="0 0 80 80" fill="none" xmlns="http://www.w3.org/2000/svg">
<g clip-path="url(#clip0)">
<path d="M79.2905 55.6062L62.3957 48.3467L65.4379 47.0525C66.0335 46.7989 66.3111 46.1106 66.0576 45.515C65.8043 44.9193 65.1163 44.6415 64.5199 44.8953L58.9551 47.2628L40.0002 55.327L21.0454 47.2628C21.0446 47.2625 21.044 47.2623 21.0432 47.262L4.15405 40.0767L20.5884 33.0153L39.5409 41.0784C39.6877 41.1408 39.8439 41.172 40 41.172C40.1561 41.172 40.3123 41.1408 40.4591 41.0784L59.4116 33.0153L75.8458 40.0769L68.8594 43.049C68.2635 43.3023 67.986 43.9907 68.2396 44.5864C68.493 45.182 69.181 45.46 69.7772 45.2061L79.2866 41.1604C79.7184 40.9769 79.9991 40.5533 79.9998 40.0839C80.0008 39.6145 79.7216 39.19 79.2903 39.0048L62.3957 31.7453L79.2866 24.5594C79.7184 24.3758 79.9991 23.9522 79.9998 23.4829C80.0008 23.0135 79.7216 22.589 79.2903 22.4038L40.4627 5.72027C40.167 5.59324 39.8327 5.59324 39.537 5.72027L15.2835 16.1416C14.6887 16.3973 14.4137 17.0866 14.6693 17.6815C14.9251 18.2762 15.6143 18.5515 16.2092 18.2957L39.9998 8.07323L75.8456 23.4757L39.9998 38.7256L4.1542 23.4757L11.8762 20.1576C12.471 19.9019 12.746 19.2126 12.4904 18.6179C12.2346 18.0232 11.5456 17.7479 10.9506 18.0037L0.709531 22.4041C0.278283 22.5893 -0.000935143 23.0138 2.35349e-06 23.4832C0.00093985 23.9524 0.281564 24.376 0.713281 24.5597L17.6042 31.7458L0.709531 39.0051C0.278283 39.1903 -0.000935143 39.6148 2.35349e-06 40.0842C0.00093985 40.5536 0.281564 40.977 0.713281 41.1608L17.6042 48.3468L0.709531 55.6062C0.278283 55.7913 -0.000935143 56.2159 2.35349e-06 56.6852C0.00093985 57.1545 0.281564 57.578 0.713281 57.7618L39.5408 74.2803C39.6875 74.3427 39.8438 74.3739 39.9998 74.3739C40.1559 74.3739 40.3122 74.3427 40.4589 74.2803L46.4009 71.7525C46.9965 71.4989 47.2742 70.8107 47.0206 70.215C46.767 69.6191 46.0786 69.3419 45.4829 69.5953L40 71.928L4.15405 56.6777L20.5884 49.6164L39.5409 57.6795C39.6877 57.7418 39.8439 57.773 40 57.773C40.1561 57.773 40.3123 57.7418 40.4591 57.6795L59.4116 49.6164L75.846 56.6779L49.8226 67.7489C49.227 68.0025 48.9493 68.6908 49.2029 69.2864C49.4564 69.8824 50.1448 70.1596 50.7406 69.9061L79.2867 57.7618C79.7186 57.5782 79.9992 57.1546 80 56.6852C80.0009 56.2159 79.7217 55.7913 79.2905 55.6062Z" fill="white"/>
</g>
<defs>
<clipPath id="clip0">
<rect width="80" height="80" fill="white"/>
</clipPath>
</defs>
</svg>
