<svg width="1838" height="223" viewBox="0 0 1838 223" fill="none" xmlns="http://www.w3.org/2000/svg">
<path d="M242 121L165 223H568L645 121H242Z" fill="#A8A5A0"/>
<path d="M130 223H0L167.103 0H736L666 93H228L130 223Z" fill="#739BB5"/>
<path d="M820.141 109.539V113.23H832.035V137.703C827.66 141.987 822.055 144.129 815.219 144.129C802.823 144.129 795.121 137.293 792.113 123.621C791.02 118.699 790.473 112.866 790.473 106.121C790.564 80.6003 799.04 67.7943 815.902 67.7031C826.02 67.7031 833.266 72.2148 837.641 81.2383C839.19 84.6107 840.512 88.6211 841.605 93.2695H845.57L845.023 65.1055L832.445 67.7031C826.339 64.9688 819.913 63.6016 813.168 63.6016C801.228 63.6016 791.339 67.3385 783.5 74.8125C775.57 82.5599 771.605 92.8138 771.605 105.574C771.605 121.342 777.257 133.1 788.559 140.848C795.85 145.77 804.145 148.23 813.441 148.23C820.824 148.23 827.523 146.727 833.539 143.719L848.441 147V113.23H857.738V109.539H820.141ZM903.266 147V143.309H892.328V109.539H901.078L921.859 147.137L944.828 147C944.828 144.995 944.236 143.855 943.051 143.582C942.504 143.491 941.957 143.445 941.41 143.445H938.539L917.074 108.035C926.371 105.574 932.296 100.652 934.848 93.2695C935.577 90.9909 935.941 88.7122 935.941 86.4336C935.941 79.5977 932.934 74.1289 926.918 70.0273C921.905 66.6549 915.798 64.9688 908.598 64.9688H864.574V68.6602H875.512V143.309H864.574V147H903.266ZM901.762 68.6602C909.145 68.6602 914.112 72.0781 916.664 78.9141C917.576 81.375 918.031 84.0182 918.031 86.8438C918.031 94.1354 915.707 99.4674 911.059 102.84C908.598 104.572 905.772 105.438 902.582 105.438H892.328V68.6602H901.762ZM946.195 68.6602H957.133V116.648C957.315 137.703 968.572 148.276 990.902 148.367C1005.85 148.367 1015.19 142.579 1018.93 131.004C1020.3 126.538 1020.98 121.206 1020.98 115.008V68.6602H1031.92V64.9688H1005.12V68.6602H1016.06V115.828C1015.97 134.786 1008.54 144.311 993.773 144.402C983.474 144.402 977.185 138.979 974.906 128.133C974.177 124.578 973.812 120.431 973.812 115.691V68.6602H984.75V64.9688H946.195V68.6602ZM1074.03 68.6602C1082.96 68.6602 1087.97 73.7188 1089.07 83.8359C1089.16 85.0208 1089.2 86.2513 1089.2 87.5273C1089.2 99.6497 1084.33 106.076 1074.57 106.805C1074.03 106.805 1073.48 106.805 1072.93 106.805H1063.91V68.6602H1074.03ZM1077.58 147C1077.04 144.721 1075.8 143.491 1073.89 143.309H1063.91V110.906H1075.39C1090.8 110.906 1100.69 106.258 1105.06 96.9609C1106.52 93.862 1107.25 90.444 1107.25 86.707C1107.25 78.0482 1103.42 71.8503 1095.77 68.1133C1091.48 66.0169 1086.29 64.9688 1080.18 64.9688H1036.16V68.6602H1047.09V143.309H1036.16V147H1077.58ZM1157.97 63.6016C1146.21 63.6016 1136.23 67.3385 1128.03 74.8125C1119.37 82.7422 1115.04 92.9961 1115.04 105.574C1115.04 120.066 1120.19 131.323 1130.49 139.344C1138.24 145.359 1147.26 148.367 1157.56 148.367C1169.23 148.367 1179.12 144.585 1187.23 137.02C1195.8 128.999 1200.08 118.699 1200.08 106.121C1200.08 91.1732 1194.8 79.7799 1184.22 71.9414C1176.75 66.3815 1168 63.6016 1157.97 63.6016ZM1157.97 144.402C1146.67 144.402 1139.42 138.432 1136.23 126.492C1134.78 120.932 1134.05 114.142 1134.05 106.121C1134.05 81.7852 1141.02 68.9792 1154.96 67.7031C1155.88 67.612 1156.74 67.5664 1157.56 67.5664C1169.78 67.5664 1177.2 74.9948 1179.85 89.8516C1180.67 94.4089 1181.08 99.6497 1181.08 105.574C1181.08 127.996 1175.43 140.711 1164.12 143.719C1162.21 144.174 1160.16 144.402 1157.97 144.402ZM1277.46 147.684L1305.9 68.6602H1312.74V64.9688H1289.63V68.6602H1300.57L1279.11 128.68L1255.45 68.6602H1266.25V64.9688H1231.25V68.6602H1238.64L1265.3 136.883C1267.48 142.443 1269.22 145.678 1270.49 146.59C1271.49 147.319 1273 147.684 1275 147.684H1277.46ZM1354.98 147C1354.44 144.721 1353.21 143.491 1351.29 143.309H1344.05V68.6602H1354.98V64.9688H1316.29V68.6602H1327.23V143.309H1316.29V147H1354.98ZM1362.09 64.9688V68.6602H1373.03V143.309H1362.09V147H1401.88C1414.37 147 1424.67 143.172 1432.78 135.516C1440.8 127.951 1444.81 118.152 1444.81 106.121C1444.81 90.8086 1439.11 79.4609 1427.72 72.0781C1420.34 67.3385 1411.68 64.9688 1401.74 64.9688H1362.09ZM1401.88 68.6602C1413 68.6602 1420.24 74.0378 1423.62 84.793C1425.26 90.2617 1426.08 97.1888 1426.08 105.574C1426.08 126.447 1420.75 138.615 1410.08 142.078C1407.62 142.898 1404.89 143.309 1401.88 143.309H1389.85V68.6602H1401.88ZM1492.8 147V143.309H1481.86V109.539H1490.61L1511.39 147.137L1534.36 147C1534.36 144.995 1533.77 143.855 1532.58 143.582C1532.04 143.491 1531.49 143.445 1530.94 143.445H1528.07L1506.61 108.035C1515.9 105.574 1521.83 100.652 1524.38 93.2695C1525.11 90.9909 1525.47 88.7122 1525.47 86.4336C1525.47 79.5977 1522.46 74.1289 1516.45 70.0273C1511.44 66.6549 1505.33 64.9688 1498.13 64.9688H1454.11V68.6602H1465.04V143.309H1454.11V147H1492.8ZM1491.29 68.6602C1498.68 68.6602 1503.64 72.0781 1506.2 78.9141C1507.11 81.375 1507.56 84.0182 1507.56 86.8438C1507.56 94.1354 1505.24 99.4674 1500.59 102.84C1498.13 104.572 1495.3 105.438 1492.11 105.438H1481.86V68.6602H1491.29ZM1576.61 147C1576.06 144.721 1574.83 143.491 1572.91 143.309H1565.67V68.6602H1576.61V64.9688H1537.91V68.6602H1548.85V143.309H1537.91V147H1576.61ZM1650.98 90.6719L1650.43 64.9688H1583.71V68.6602H1594.65V143.309H1583.71V147H1650.43L1650.98 121.297H1647.43L1644.69 129.773C1642.32 136.883 1638.77 141.167 1634.03 142.625C1632.48 143.081 1630.79 143.309 1628.97 143.309H1611.47V106.805H1638.4V102.703H1611.47V68.6602H1628.97C1635.99 68.6602 1640.95 72.306 1643.87 79.5977C1644.24 80.418 1644.55 81.2839 1644.83 82.1953L1647.43 90.6719H1650.98ZM1699.65 147V143.309H1688.71V109.539H1697.46L1718.25 147.137L1741.21 147C1741.21 144.995 1740.62 143.855 1739.44 143.582C1738.89 143.491 1738.34 143.445 1737.8 143.445H1734.93L1713.46 108.035C1722.76 105.574 1728.68 100.652 1731.23 93.2695C1731.96 90.9909 1732.33 88.7122 1732.33 86.4336C1732.33 79.5977 1729.32 74.1289 1723.3 70.0273C1718.29 66.6549 1712.18 64.9688 1704.98 64.9688H1660.96V68.6602H1671.9V143.309H1660.96V147H1699.65ZM1698.15 68.6602C1705.53 68.6602 1710.5 72.0781 1713.05 78.9141C1713.96 81.375 1714.42 84.0182 1714.42 86.8438C1714.42 94.1354 1712.09 99.4674 1707.45 102.84C1704.98 104.572 1702.16 105.438 1698.97 105.438H1688.71V68.6602H1698.15ZM1789.75 63.6016C1777.99 63.6016 1768.01 67.3385 1759.81 74.8125C1751.15 82.7422 1746.82 92.9961 1746.82 105.574C1746.82 120.066 1751.97 131.323 1762.27 139.344C1770.02 145.359 1779.04 148.367 1789.34 148.367C1801.01 148.367 1810.9 144.585 1819.01 137.02C1827.58 128.999 1831.86 118.699 1831.86 106.121C1831.86 91.1732 1826.57 79.7799 1816 71.9414C1808.53 66.3815 1799.78 63.6016 1789.75 63.6016ZM1789.75 144.402C1778.45 144.402 1771.2 138.432 1768.01 126.492C1766.55 120.932 1765.82 114.142 1765.82 106.121C1765.82 81.7852 1772.8 68.9792 1786.74 67.7031C1787.65 67.612 1788.52 67.5664 1789.34 67.5664C1801.55 67.5664 1808.98 74.9948 1811.62 89.8516C1812.45 94.4089 1812.86 99.6497 1812.86 105.574C1812.86 127.996 1807.2 140.711 1795.9 143.719C1793.99 144.174 1791.94 144.402 1789.75 144.402Z" fill="#333333"/>
</svg>
